<?xml version="1.0" encoding="utf-8"?>
<!-- Generator: Adobe Illustrator 27.2.0, SVG Export Plug-In . SVG Version: 6.00 Build 0)  -->
<svg version="1.1" id="Layer_1" xmlns="http://www.w3.org/2000/svg" xmlns:xlink="http://www.w3.org/1999/xlink" x="0px" y="0px"
	 viewBox="0 0 16 16" style="enable-background:new 0 0 16 16;" xml:space="preserve">
<style type="text/css">
	.st0{fill:#FEDA02;}
	.st1{fill:#010101;}
</style>
<rect class="st0" width="16" height="16"/>
<g transform="translate(0.000000,1884.000000) scale(0.100000,-0.100000)">
	<path class="st1" d="M74.06,18831.05c-9.82-0.52-18.75-2.83-27.39-7.08c-19.81-9.75-33.92-28.35-37.9-50.01
		c-0.72-3.94-1.01-6.98-1.08-11.44c-0.06-3.8,0.03-5.77,0.36-8.8c1.45-13.12,6.61-25.56,14.9-35.91c1.56-1.95,3.3-3.88,5.19-5.76
		l1.67-1.67l0.03,8.73l0.02,8.72l-0.77,1.13c-5.11,7.53-8.47,16.68-9.47,25.8c-0.46,4.22-0.46,9.11,0,13.18
		c1.33,11.73,6,22.41,13.78,31.49c1.36,1.59,4.42,4.63,6.12,6.08c6.75,5.77,14.69,9.93,23.16,12.11c8.53,2.21,17.61,2.46,26.29,0.71
		c4.11-0.82,8.92-2.37,12.51-4.04l0.97-0.46v-37.51c0-33.16-0.02-37.51-0.14-37.46c-0.08,0.03-10.93,11-24.11,24.39l-23.96,24.33
		h-6.81h-6.8v-42.72v-42.72l0.5-0.32c1.93-1.24,6.32-3.5,8.97-4.62c5.86-2.49,12.29-4.23,18.43-5c3.39-0.43,4.25-0.48,8.67-0.48
		c4.43-0.01,5.47,0.04,8.62,0.43c11.52,1.41,22.61,5.72,32,12.45c0.67,0.49,1.29,0.88,1.37,0.88c0.1,0,3.9-3.73,8.45-8.29l8.29-8.29
		h8.19h8.19l-12.17,12.17c-6.69,6.69-12.16,12.2-12.16,12.24c0,0.05,0.56,0.71,1.25,1.48c7.14,7.99,12.27,17.24,15.18,27.36
		c3.21,11.18,3.56,22.9,1.04,34.35c-2.5,11.36-7.93,22.02-15.76,30.95c-1.21,1.38-4.45,4.71-4.57,4.71c-0.05,0-0.09-3.89-0.09-8.71
		v-8.73l0.84-1.26c4.64-6.93,7.81-15.23,9.02-23.62c0.43-3.02,0.55-4.91,0.56-8.46c0-4.2-0.24-6.9-0.94-10.76
		c-3.06-16.64-13.57-31.41-28.32-39.76c-7.84-4.45-16.21-6.93-25.26-7.5c-2.19-0.14-7.21-0.06-9.19,0.15
		c-6.74,0.7-12.92,2.36-18.62,5.01l-0.86,0.4v31.99c0,25.54,0.03,32,0.12,32c0.06-0.01,10.92-10.98,24.12-24.38l24-24.38h6.79h6.78
		v41.05c0,27.48,0.03,41.05,0.1,41.05c0.07,0,0.09,2.41,0.08,7.16l-0.03,7.16l-1.48,0.89c-1.56,0.93-5.28,2.86-6.95,3.6
		c-9.08,4.04-18.85,6.1-28.67,6.03C75.72,18831.09,74.35,18831.07,74.06,18831.05z"/>
</g>
</svg>
