<?xml version="1.0" standalone="no"?>
<!DOCTYPE svg PUBLIC "-//W3C//DTD SVG 20010904//EN"
 "http://www.w3.org/TR/2001/REC-SVG-20010904/DTD/svg10.dtd">
<svg version="1.0" xmlns="http://www.w3.org/2000/svg"
 width="1600.000000pt" height="1418.000000pt" viewBox="0 0 1600.000000 1418.000000"
 preserveAspectRatio="xMidYMid meet">

<g transform="translate(0.000000,1418.000000) scale(0.100000,-0.100000)"
fill="#000000" stroke="none">
<path d="M7825 11300 c-526 -59 -903 -165 -1350 -379 -609 -293 -1144 -754
-1524 -1316 -348 -514 -561 -1069 -647 -1685 -15 -101 -18 -199 -18 -505 -1
-346 1 -393 22 -530 71 -468 206 -889 408 -1274 189 -359 386 -630 666 -916
l127 -130 1 487 0 486 -64 97 c-120 178 -252 439 -321 635 -13 36 -33 90 -44
121 -42 115 -101 371 -128 549 -25 169 -28 210 -28 475 0 267 3 304 28 470 65
420 190 789 384 1125 81 141 91 156 167 264 204 291 446 541 721 747 350 261
738 445 1156 549 230 57 570 100 791 100 105 0 383 -24 528 -46 217 -32 551
-129 765 -222 l110 -48 3 -1579 c4 -1775 -4 -2629 -22 -2617 -6 4 -67 66 -136
137 -68 72 -329 337 -579 590 -398 402 -1183 1198 -1775 1803 l-189 192 -379
0 -378 0 0 -2393 0 -2393 108 -61 c523 -298 1074 -468 1672 -514 161 -13 544
-6 680 11 491 63 884 176 1295 375 172 83 298 156 478 276 81 54 153 99 160
99 7 0 219 -207 472 -460 l460 -460 459 0 460 0 -675 674 c-371 371 -675 681
-677 688 -1 8 40 63 92 122 429 487 733 1084 875 1716 124 553 122 1168 -5
1720 -145 624 -428 1187 -842 1670 -81 94 -272 290 -284 290 -4 0 -8 -215 -8
-479 l0 -479 33 -48 c387 -564 588 -1290 548 -1985 -47 -841 -388 -1598 -978
-2170 -616 -598 -1411 -919 -2278 -919 -456 0 -888 90 -1310 272 l-80 35 -3
1791 c-1 1155 1 1792 8 1792 5 0 137 -129 292 -287 156 -159 456 -463 668
-678 212 -214 505 -511 650 -660 146 -148 399 -405 562 -570 163 -165 345
-351 404 -412 l108 -113 377 0 377 0 5 33 c3 17 4 1233 3 2701 l-3 2668 -69
40 c-363 213 -829 391 -1214 464 -283 53 -408 65 -725 69 -170 2 -346 0 -390
-5z"/>
</g>
</svg>
